<?xml version="1.0" encoding="UTF-8" standalone="no"?>
<svg
   xmlns:dc="http://purl.org/dc/elements/1.1/"
   xmlns:cc="http://creativecommons.org/ns#"
   xmlns:rdf="http://www.w3.org/1999/02/22-rdf-syntax-ns#"
   xmlns:svg="http://www.w3.org/2000/svg"
   xmlns="http://www.w3.org/2000/svg"
   xmlns:xlink="http://www.w3.org/1999/xlink"
   version="1.1"
   viewBox="0 0 886.00122 757.30006"
   height="757.30005"
   width="886.00122"
   data-name="Layer 1"
   id="ba7a25ce-c07b-4ac4-a0ea-a259ac25350d">
  <metadata
     id="metadata203">
    <rdf:RDF>
      <cc:Work
         rdf:about="">
        <dc:format>image/svg+xml</dc:format>
        <dc:type
           rdf:resource="http://purl.org/dc/dcmitype/StillImage" />
      </cc:Work>
    </rdf:RDF>
  </metadata>
  <defs
     id="defs35">
    <linearGradient
       gradientUnits="userSpaceOnUse"
       y2="237.53999"
       x2="768"
       y1="237.53999"
       x1="709"
       id="ed8d860b-00cf-433a-95e5-cbf5c617e18b">
      <stop
         id="stop2"
         stop-opacity="0.25"
         stop-color="gray"
         offset="0" />
      <stop
         id="stop4"
         stop-opacity="0.12"
         stop-color="gray"
         offset="0.54" />
      <stop
         id="stop6"
         stop-opacity="0.1"
         stop-color="gray"
         offset="1" />
    </linearGradient>
    <linearGradient
       gradientTransform="translate(0.00121283)"
       xlink:href="#ed8d860b-00cf-433a-95e5-cbf5c617e18b"
       y2="0"
       x2="816"
       y1="110"
       x1="816"
       id="6339929e-befe-4c3c-83b4-b4b07511d1c6" />
    <linearGradient
       xlink:href="#ed8d860b-00cf-433a-95e5-cbf5c617e18b"
       y2="158.42"
       x2="347.64001"
       y1="559.72998"
       x1="347.64001"
       id="c68f5f28-28ea-478e-a627-cc48dbc11db2" />
    <linearGradient
       gradientTransform="translate(0.00121283)"
       xlink:href="#ed8d860b-00cf-433a-95e5-cbf5c617e18b"
       y2="215.07001"
       x2="205.39999"
       y1="660.58002"
       x1="205.39999"
       id="af0c75ea-b6a9-473b-a441-46b6eb7aabaa" />
    <linearGradient
       xlink:href="#ed8d860b-00cf-433a-95e5-cbf5c617e18b"
       y2="241.78"
       x2="527.16998"
       y1="577.53003"
       x1="527.16998"
       id="07c293ef-2e04-47b9-9dab-05744944918b" />
    <linearGradient
       gradientTransform="translate(0.00121283)"
       xlink:href="#ed8d860b-00cf-433a-95e5-cbf5c617e18b"
       y2="284.39999"
       x2="356.60999"
       y1="658.33002"
       x1="356.60999"
       id="99ecabf1-6663-4199-9e30-2b1879a6e68f" />
    <linearGradient
       gradientTransform="translate(-156.99879,-60)"
       xlink:href="#ed8d860b-00cf-433a-95e5-cbf5c617e18b"
       y2="410"
       x2="719.08002"
       y1="790.21997"
       x1="719.08002"
       id="a5323f77-a164-4403-a4a3-e3bb80b3dd3a" />
    <linearGradient
       gradientTransform="translate(0.00121283)"
       xlink:href="#ed8d860b-00cf-433a-95e5-cbf5c617e18b"
       y2="256.23001"
       x2="561.03998"
       y1="372.91"
       x1="561.03998"
       id="2adf7edc-03a9-497d-bc9b-be51c3b9abee" />
    <linearGradient
       gradientTransform="translate(0.00121283)"
       xlink:href="#ed8d860b-00cf-433a-95e5-cbf5c617e18b"
       y2="427.07999"
       x2="400.09"
       y1="530.21002"
       x1="400.09"
       id="fc6d08f3-e0d9-4b30-9f4b-e3e40f68421d" />
    <linearGradient
       gradientTransform="translate(0.00121283)"
       xlink:href="#ed8d860b-00cf-433a-95e5-cbf5c617e18b"
       y2="427.07999"
       x2="719.90002"
       y1="530.21002"
       x1="719.90002"
       id="b061de97-efb2-47d4-a738-e03d872c7bb2" />
    <linearGradient
       xlink:href="#ed8d860b-00cf-433a-95e5-cbf5c617e18b"
       y2="100.75"
       x2="560.01001"
       y1="430.70001"
       x1="560.01001"
       id="629934b4-7f6d-4a9f-b25a-bd23c5ea943e" />
    <linearGradient
       gradientTransform="translate(0.00121283)"
       xlink:href="#ed8d860b-00cf-433a-95e5-cbf5c617e18b"
       y2="543.75"
       x2="560.52002"
       y1="716.15997"
       x1="560.52002"
       id="ff5f70b0-5412-4b05-8af3-9cc71edd9fb3" />
    <linearGradient
       gradientTransform="translate(0.00121283)"
       xlink:href="#ed8d860b-00cf-433a-95e5-cbf5c617e18b"
       y2="618.76001"
       x2="592.28998"
       y1="643.76001"
       x1="592.28998"
       id="55ccc14f-2d64-46f4-b390-94f238de28f8" />
    <linearGradient
       gradientTransform="translate(0.00121283)"
       xlink:href="#ed8d860b-00cf-433a-95e5-cbf5c617e18b"
       y2="691.67999"
       x2="558.44"
       y1="741.67999"
       x1="558.44"
       id="dc666d0b-2aa0-4660-9d56-037189502a05" />
    <linearGradient
       xlink:href="#ed8d860b-00cf-433a-95e5-cbf5c617e18b"
       y2="540.92999"
       x2="424.14999"
       y1="725.91998"
       x1="424.14999"
       id="fa11ad7e-aa97-42a8-8299-cf9535b348d8" />
    <linearGradient
       gradientTransform="translate(0.00121283)"
       xlink:href="#ed8d860b-00cf-433a-95e5-cbf5c617e18b"
       y2="534.71002"
       x2="273.95001"
       y1="740.07001"
       x1="273.95001"
       id="54170ddb-90d4-4c6b-9aec-414726b57e5b" />
    <linearGradient
       xlink:href="#ed8d860b-00cf-433a-95e5-cbf5c617e18b"
       y2="579.35999"
       x2="506.91"
       y1="734.12"
       x1="506.91"
       id="35371f95-6706-4e56-a6fb-3c3dca9d719e" />
    <linearGradient
       gradientTransform="translate(0.00121283)"
       xlink:href="#ed8d860b-00cf-433a-95e5-cbf5c617e18b"
       y2="566.65997"
       x2="343.64999"
       y1="739.03003"
       x1="343.64999"
       id="71e42c26-8972-4331-ac1b-fe8028f46264" />
    <linearGradient
       gradientTransform="translate(0.00121283)"
       xlink:href="#ed8d860b-00cf-433a-95e5-cbf5c617e18b"
       y2="468.20001"
       x2="45.220001"
       y1="748.20001"
       x1="45.220001"
       id="b530f945-63fc-46f4-8c64-420d03be0b8a" />
    <linearGradient
       gradientTransform="translate(0.00121283)"
       xlink:href="#ed8d860b-00cf-433a-95e5-cbf5c617e18b"
       y2="479.76001"
       x2="147"
       y1="528.64001"
       x1="147"
       id="6434ea8d-22a5-4ded-b4fb-b816fb6aaf11" />
    <linearGradient
       gradientTransform="translate(0.00121283)"
       xlink:href="#ed8d860b-00cf-433a-95e5-cbf5c617e18b"
       y2="495.76001"
       x2="45.669998"
       y1="511.76001"
       x1="45.669998"
       id="ce587cc2-5f44-4d09-a37f-cbd1d4582cbf" />
    <linearGradient
       gradientTransform="translate(0.00121283)"
       xlink:href="#ed8d860b-00cf-433a-95e5-cbf5c617e18b"
       y2="495.76001"
       x2="259.89001"
       y1="511.76001"
       x1="259.89001"
       id="44f2908b-b842-425b-90b7-6a504dcafb19" />
    <linearGradient
       gradientTransform="translate(0.00121283)"
       xlink:href="#ed8d860b-00cf-433a-95e5-cbf5c617e18b"
       y2="627.76001"
       x2="247.44"
       y1="627.76001"
       x1="75.889999"
       id="18c6eef5-8ad4-4423-849c-53e6d88fcc26" />
    <linearGradient
       xlink:href="#ed8d860b-00cf-433a-95e5-cbf5c617e18b"
       gradientTransform="matrix(-1,0,0,1,1458.08,0)"
       y2="581.70001"
       x2="500.45001"
       y1="749.89001"
       x1="500.45001"
       id="6cad729a-3ab6-44c4-8c11-5c0a64ee20ab" />
    <linearGradient
       xlink:href="#ed8d860b-00cf-433a-95e5-cbf5c617e18b"
       gradientTransform="matrix(-1,0,0,1,1301.0812,-60)"
       y2="630.59003"
       x2="506.63"
       y1="817.29999"
       x1="506.63"
       id="b6203ec6-a956-4b17-9931-78587025ff07" />
    <linearGradient
       xlink:href="#ed8d860b-00cf-433a-95e5-cbf5c617e18b"
       gradientTransform="matrix(-1,0,0,1,1458.08,0)"
       y2="616.64001"
       x2="575.69"
       y1="757.34998"
       x1="575.69"
       id="b6cb1d8e-c69c-4d33-a5df-3c3a5a49df8c" />
    <linearGradient
       xlink:href="#ed8d860b-00cf-433a-95e5-cbf5c617e18b"
       gradientTransform="matrix(-1,0,0,1,1301.0812,-60)"
       y2="659.65002"
       x2="570.01001"
       y1="816.35999"
       x1="570.01001"
       id="7de7dbdc-b07f-446b-8432-6deb6240c5ca" />
    <linearGradient
       y2="237.53999"
       x2="768"
       y1="237.53999"
       x1="709"
       gradientUnits="userSpaceOnUse"
       id="linearGradient205"
       xlink:href="#ed8d860b-00cf-433a-95e5-cbf5c617e18b" />
  </defs>
  <title
     id="title37">for sale</title>
  <polygon
     transform="translate(0.00121283)"
     style="fill:url(#linearGradient205)"
     id="polygon39"
     points="768,176 768,299.07 709,242.4 709,176 " />
  <polygon
     transform="translate(0.00121283)"
     style="fill:#c8de72"
     id="polygon41"
     points="760,189 760,299.07 716,247 716,189 " />
  <circle
     style="fill:url(#6339929e-befe-4c3c-83b4-b4b07511d1c6)"
     id="circle43"
     r="55"
     cy="55"
     cx="816.00122" />
  <circle
     style="fill:#ff9800"
     id="circle45"
     r="44"
     cy="55"
     cx="816.00122" />
  <g
     transform="translate(0.00121283)"
     data-name="&lt;Group&gt;"
     id="f741385e-e577-4271-b030-1aa9bd75830a">
    <path
       style="fill:url(#c68f5f28-28ea-478e-a627-cc48dbc11db2)"
       id="path47"
       transform="translate(-157,-60)"
       d="m 502.49,365.47 a 86.18,86.18 0 0 0 -17.79,-128.9 51,51 0 0 0 8.16,-27.75 c 0,-27.84 -22.07,-50.41 -49.29,-50.41 -22.42,0 -41.32,15.33 -47.29,36.29 -12.87,-21.75 -36.22,-36.29 -62.89,-36.29 -40.57,0 -73.45,33.63 -73.45,75.12 a 76.49,76.49 0 0 0 4.5,25.93 c -1.49,-0.12 -3,-0.23 -4.5,-0.23 -32.56,0 -59,27 -59,60.3 0,2.05 0.1,4.08 0.3,6.09 A 74.94,74.94 0 0 0 157,394.41 c 0,41.35 32.78,74.88 73.21,74.88 a 72,72 0 0 0 12.67,-1.14 c -0.22,2.49 -0.35,5 -0.35,7.57 0,46.4 36.78,84 82.15,84 a 80.5,80.5 0 0 0 46.78,-15 60.29,60.29 0 0 0 39.72,15 c 33.89,0 61.37,-28.1 61.37,-62.77 0,-1.5 -0.12,-3 -0.22,-4.45 h 0.22 c 36.3,0 65.72,-30.09 65.72,-67.21 a 67.38,67.38 0 0 0 -35.78,-59.82 z" />
  </g>
  <path
     style="fill:#00897b"
     d="m 336.00121,305.07 a 80.89,80.89 0 0 0 -16.7,-121 47.84,47.84 0 0 0 7.66,-26 c 0,-26.13 -20.71,-47.32 -46.27,-47.32 -21,0 -38.78,14.39 -44.39,34.06 a 68.61,68.61 0 0 0 -59,-34.06 c -38.08,0 -68.95,31.57 -68.95,70.51 a 71.8,71.8 0 0 0 4.22,24.34 c -1.4,-0.11 -2.8,-0.22 -4.22,-0.22 -30.599997,-0.01 -55.349997,25.32 -55.349997,56.62 0,1.93 0.1,3.83 0.28,5.71 a 70.34,70.34 0 0 0 -41.56,64.57 c 0,38.82 30.77,70.28 68.72,70.28 a 67.57,67.57 0 0 0 11.89,-1.07 c -0.2,2.34 -0.33,4.71 -0.33,7.1 0,43.55 34.519997,78.86 77.109997,78.86 a 75.56,75.56 0 0 0 43.91,-14 56.59,56.59 0 0 0 37.28,14 c 31.81,0 57.61,-26.38 57.61,-58.92 0,-1.41 -0.11,-2.79 -0.21,-4.18 h 0.21 c 34.07,0 61.69,-28.25 61.69,-63.09 a 63.24,63.24 0 0 0 -33.6,-56.19 z"
     data-name="&lt;Path&gt;"
     id="aa86aca2-1def-4b5e-bdbf-3429bf39090e" />
  <rect
     style="fill:url(#af0c75ea-b6a9-473b-a441-46b6eb7aabaa)"
     id="rect51"
     height="445.51001"
     width="17.91"
     y="215.07001"
     x="196.44121" />
  <rect
     style="fill:#795548"
     id="rect53"
     height="439.25"
     width="9.0100002"
     y="221.33"
     x="201.5312" />
  <rect
     style="fill:#795548"
     id="rect55"
     transform="rotate(-47.2)"
     height="9.0100002"
     width="108.81"
     y="385.59518"
     x="-120.99631" />
  <rect
     style="fill:#795548"
     id="rect57"
     transform="rotate(-53.4)"
     height="95.480003"
     width="9.0100002"
     y="320.19724"
     x="-222.03586" />
  <g
     transform="translate(0.00121283)"
     data-name="&lt;Group&gt;"
     id="b1e29bf6-85c6-472a-ba69-b630e8d8f49d">
    <path
       style="fill:url(#07c293ef-2e04-47b9-9dab-05744944918b)"
       id="path59"
       transform="translate(-157,-60)"
       d="m 390,415 a 69.52,69.52 0 0 1 -18.86,-47.52 c 0,-25.44 13.83,-47.74 34.61,-60.31 A 41,41 0 0 1 398.57,284 c 0,-23.29 19.54,-42.17 43.65,-42.17 19.86,0 36.59,12.82 41.88,30.36 a 65.5,65.5 0 0 1 55.69,-30.36 c 35.93,0 65,28.14 65,62.85 a 60.83,60.83 0 0 1 -4,21.69 c 1.32,-0.1 2.64,-0.19 4,-0.19 28.84,0 52.21,22.58 52.21,50.44 a 49.31,49.31 0 0 1 -0.27,5.09 c 23.06,9.6 39.21,31.75 39.21,57.55 0,34.6 -29,62.64 -64.84,62.64 a 67.38,67.38 0 0 1 -11.22,-1 c 0.19,2.09 0.31,4.19 0.31,6.33 0,38.82 -32.57,70.29 -72.75,70.29 A 74.16,74.16 0 0 1 506.07,565 55.23,55.23 0 0 1 470.89,577.52 c -30,0 -54.35,-23.51 -54.35,-52.51 0,-1.26 0.1,-2.49 0.19,-3.73 h -0.19 c -32.14,0 -58.2,-25.18 -58.2,-56.23 0,-21.82 12.89,-40.73 31.66,-50.05 z" />
  </g>
  <path
     style="fill:#009688"
     d="m 238.91121,354.77 a 66.54,66.54 0 0 1 -18,-45.49 c 0,-24.35 13.24,-45.69 33.13,-57.72 a 39.2,39.2 0 0 1 -6.91,-22.22 c 0,-22.29 18.71,-40.37 41.78,-40.37 19,0 35,12.27 40.09,29.06 a 62.7,62.7 0 0 1 53.25,-29.03 c 34.39,0 62.26,26.93 62.26,60.15 a 58.22,58.22 0 0 1 -3.81,20.77 c 1.26,-0.09 2.52,-0.19 3.81,-0.19 27.6,0 50,21.62 50,48.28 a 47.2,47.2 0 0 1 -0.25,4.87 c 22.07,9.19 37.53,30.39 37.53,55.08 0,33.11 -27.78,60 -62.06,60 a 64.49,64.49 0 0 1 -10.73,-0.96 c 0.18,2 0.29,4 0.29,6.06 0,37.16 -31.18,67.28 -69.63,67.28 a 71,71 0 0 1 -39.65,-12 52.86,52.86 0 0 1 -33.67,12 c -28.73,0 -52,-22.5 -52,-50.26 0,-1.2 0.1,-2.38 0.19,-3.57 h -0.19 c -30.77,0 -55.71,-24.1 -55.71,-53.82 -0.05,-20.9 12.28,-39 30.28,-47.92 z"
     data-name="&lt;Path&gt;"
     id="da8ae254-7852-462b-b033-1b79dc847a6a" />
  <line
     style="fill:#795548"
     y2="658.33002"
     x2="356.95123"
     y1="284.39999"
     x1="356.95123"
     data-name="&lt;Path&gt;"
     id="d827a518-3361-4086-b50f-c6b47e6818cd" />
  <rect
     style="fill:url(#99ecabf1-6663-4199-9e30-2b1879a6e68f)"
     id="rect64"
     height="373.92001"
     width="20.370001"
     y="284.39999"
     x="346.43121" />
  <rect
     style="fill:#795548"
     id="rect66"
     height="373.92001"
     width="11.26"
     y="284.39999"
     x="351.32123" />
  <line
     style="fill:#795548"
     y2="328.28"
     x2="291.32123"
     y1="396.39001"
     x1="358.09122"
     data-name="&lt;Path&gt;"
     id="4a2b3956-f53f-4918-93e5-f7b78a79ae92" />
  <rect
     style="fill:#795548"
     id="rect69"
     transform="rotate(-44.43)"
     height="95.379997"
     width="11.26"
     y="438.35965"
     x="-27.409603" />
  <line
     style="fill:#795548"
     y2="406.35999"
     x2="427.31122"
     y1="454.92999"
     x1="358.09122"
     data-name="&lt;Path&gt;"
     id="100a92bc-a3f1-4f9a-a93f-0d91ae55d71b" />
  <rect
     style="fill:#795548"
     id="rect72"
     transform="rotate(-35.06)"
     height="11.26"
     width="84.559998"
     y="572.44012"
     x="31.797047" />
  <path
     style="fill:url(#a5323f77-a164-4403-a4a3-e3bb80b3dd3a)"
     id="path74"
     d="m 813.21121,350 h -502.21 c -11.47,0 -20.76,5.16 -20.76,11.54 v 368.68 h 543.76 V 361.54 c 0,-6.38 -9.32,-11.54 -20.79,-11.54 z" />
  <polygon
     transform="translate(0.00121283)"
     style="fill:#ffffff"
     id="polygon76"
     points="298.53,716.16 824.08,716.16 824.08,347.52 560.52,139.04 298.53,333.64 " />
  <circle
     style="fill:url(#2adf7edc-03a9-497d-bc9b-be51c3b9abee)"
     id="circle78"
     r="58.34"
     cy="314.57001"
     cx="561.0412" />
  <rect
     style="fill:url(#fc6d08f3-e0d9-4b30-9f4b-e3e40f68421d)"
     id="rect80"
     height="103.13"
     width="103.13"
     y="427.07999"
     x="348.53122" />
  <rect
     style="fill:url(#b061de97-efb2-47d4-a738-e03d872c7bb2)"
     id="rect82"
     height="103.13"
     width="103.13"
     y="427.07999"
     x="668.34125" />
  <polygon
     transform="translate(0.00121283)"
     style="fill:url(#629934b4-7f6d-4a9f-b25a-bd23c5ea943e)"
     id="polygon84"
     points="561.67,100.75 886,357.59 877,427.7 561.62,189.72 248,430.7 234.03,352.56 " />
  <polygon
     transform="translate(0.00121283)"
     style="fill:#c8de72"
     id="polygon86"
     points="561.59,109.32 881,361.04 871.33,414.98 561.54,170.84 248.64,415.01 239.03,361.02 " />
  <rect
     style="fill:url(#ff5f70b0-5412-4b05-8af3-9cc71edd9fb3)"
     id="rect88"
     height="172.41"
     width="126.05"
     y="543.75"
     x="497.50122" />
  <rect
     style="fill:#c8de72"
     id="rect90"
     height="168.75999"
     width="118.76"
     y="547.40002"
     x="501.14124" />
  <rect
     style="fill:#c8de72"
     id="rect92"
     height="33.860001"
     width="95.839996"
     y="430.72"
     x="353.22122" />
  <rect
     style="opacity:0.2;fill:#c8de72"
     id="rect94"
     height="61.98"
     width="95.839996"
     y="464.57999"
     x="353.22122" />
  <rect
     style="fill:#c8de72"
     id="rect96"
     height="33.860001"
     width="95.839996"
     y="430.72"
     x="671.99121" />
  <rect
     style="opacity:0.2;fill:#c8de72"
     id="rect98"
     height="61.98"
     width="95.839996"
     y="464.57999"
     x="671.99121" />
  <path
     style="fill:#c8de72"
     id="path100"
     d="m 560.52121,367.18 a 53.13,53.13 0 0 0 53.13,-53.18 h -106.26 a 53.13,53.13 0 0 0 53.13,53.18 z" />
  <path
     style="opacity:0.2"
     id="path102"
     d="m 560.52121,366.66 a 53.13,53.13 0 0 0 53.13,-53.13 h -106.26 a 53.13,53.13 0 0 0 53.13,53.13 z" />
  <path
     style="opacity:0.2;fill:#c8de72"
     id="path104"
     d="m 560.52121,260.92 a 53.13,53.13 0 0 0 -53.13,53.08 h 106.26 a 53.13,53.13 0 0 0 -53.13,-53.08 z" />
  <path
     style="opacity:0.2;fill:#c8de72"
     id="path106"
     d="m 560.52121,260.92 a 53.13,53.13 0 0 0 -53.13,53.08 h 106.26 a 53.13,53.13 0 0 0 -53.13,-53.08 z" />
  <circle
     style="fill:url(#55ccc14f-2d64-46f4-b390-94f238de28f8)"
     id="circle108"
     r="12.5"
     cy="631.26001"
     cx="592.2912" />
  <circle
     style="fill:#263238"
     id="circle110"
     r="9.3800001"
     cy="631.26001"
     cx="592.2912" />
  <rect
     style="fill:url(#dc666d0b-2aa0-4660-9d56-037189502a05)"
     id="rect112"
     height="50"
     width="153.13"
     y="691.67999"
     x="481.87122" />
  <rect
     style="fill:#ffffff"
     id="rect114"
     height="42.709999"
     width="146.88"
     y="695.84003"
     x="484.99121" />
  <g
     transform="translate(0.00121283)"
     data-name="&lt;Group&gt;"
     id="06ed4a51-c0d7-4f18-ace3-f8895d5abf4f">
    <path
       style="fill:url(#fa11ad7e-aa97-42a8-8299-cf9535b348d8)"
       id="path116"
       transform="translate(-157,-60)"
       d="m 495.53,636.37 a 39.73,39.73 0 0 0 -8.2,-59.41 23.49,23.49 0 0 0 3.76,-12.79 22.66,22.66 0 0 0 -44.52,-6.51 33.69,33.69 0 0 0 -29,-16.73 c -18.7,0 -33.86,15.5 -33.86,34.63 a 35.26,35.26 0 0 0 2.07,12 c -0.69,-0.05 -1.37,-0.11 -2.07,-0.11 -15,0 -27.18,12.44 -27.18,27.79 0,0.95 0,1.88 0.14,2.81 a 34.55,34.55 0 0 0 -20.41,31.71 c 0,19.06 15.11,34.51 33.75,34.51 a 33.18,33.18 0 0 0 5.84,-0.53 c -0.1,1.15 -0.16,2.31 -0.16,3.49 0,21.39 17,38.73 37.87,38.73 a 37.11,37.11 0 0 0 21.56,-6.9 27.79,27.79 0 0 0 18.31,6.9 c 15.62,0 28.29,-13 28.29,-28.93 0,-0.69 -0.05,-1.37 -0.1,-2.05 h 0.1 c 16.73,0 30.29,-13.87 30.29,-31 a 31.06,31.06 0 0 0 -16.48,-27.61 z" />
  </g>
  <path
     style="fill:#00897b"
     d="m 334.15121,576.19 a 37.29,37.29 0 0 0 -7.7,-55.77 22.05,22.05 0 0 0 3.53,-12 21.27,21.27 0 0 0 -41.79,-6.11 31.63,31.63 0 0 0 -27.19,-15.7 c -17.55,0 -31.78,14.55 -31.78,32.5 a 33.1,33.1 0 0 0 1.95,11.22 c -0.64,0 -1.29,-0.1 -1.95,-0.1 -14.09,0 -25.51,11.68 -25.51,26.09 0,0.89 0,1.77 0.13,2.63 a 32.43,32.43 0 0 0 -19.16,29.76 c 0,17.89 14.18,32.4 31.68,32.4 a 31.15,31.15 0 0 0 5.48,-0.49 c -0.09,1.08 -0.15,2.17 -0.15,3.27 0,20.08 15.91,36.35 35.54,36.35 a 34.83,34.83 0 0 0 20.24,-6.48 26.09,26.09 0 0 0 17.19,6.48 c 14.67,0 26.55,-12.16 26.55,-27.16 0,-0.65 -0.05,-1.29 -0.1,-1.93 h 0.1 c 15.7,0 28.44,-13 28.44,-29.08 a 29.15,29.15 0 0 0 -15.5,-25.88 z"
     data-name="&lt;Path&gt;"
     id="78683fa5-7813-42ce-9e3f-16828d09ffb2" />
  <rect
     style="fill:url(#54170ddb-90d4-4c6b-9aec-414726b57e5b)"
     id="rect120"
     height="205.36"
     width="8.2600002"
     y="534.71002"
     x="269.82123" />
  <rect
     style="fill:#795548"
     id="rect122"
     height="202.48"
     width="4.1500001"
     y="537.59003"
     x="272.17123" />
  <rect
     style="fill:#795548"
     id="rect124"
     transform="rotate(-47.2)"
     height="4.1500001"
     width="50.16"
     y="605.20526"
     x="-253.52458" />
  <rect
     style="fill:#795548"
     id="rect126"
     transform="rotate(-53.4)"
     height="44.009998"
     width="4.1500001"
     y="551.22589"
     x="-345.15594" />
  <g
     transform="translate(0.00121283)"
     data-name="&lt;Group&gt;"
     id="972b0d41-b6e5-4c12-bd64-332f8d6d9bc4">
    <path
       style="fill:url(#35371f95-6706-4e56-a6fb-3c3dca9d719e)"
       id="path128"
       transform="translate(-157,-60)"
       d="M 443.69,659.21 A 32,32 0 0 1 435,637.3 a 32.52,32.52 0 0 1 16,-27.8 18.88,18.88 0 0 1 -3.33,-10.7 c 0,-10.74 9,-19.44 20.12,-19.44 a 20,20 0 0 1 19.31,14 30.19,30.19 0 0 1 25.67,-14 c 16.56,0 30,13 30,29 a 28,28 0 0 1 -1.84,10 c 0.61,0 1.22,-0.09 1.84,-0.09 13.29,0 24.07,10.41 24.07,23.25 a 22.73,22.73 0 0 1 -0.12,2.35 28.88,28.88 0 0 1 18.07,26.53 c 0,15.95 -13.38,28.88 -29.89,28.88 a 31.06,31.06 0 0 1 -5.17,-0.44 c 0.09,1 0.14,1.93 0.14,2.92 0,17.89 -15,32.4 -33.54,32.4 a 34.19,34.19 0 0 1 -19.1,-5.77 25.46,25.46 0 0 1 -16.23,5.73 c -13.84,0 -25.05,-10.84 -25.05,-24.21 0,-0.58 0,-1.15 0.09,-1.72 h -0.09 c -14.82,0 -26.83,-11.61 -26.83,-25.92 a 25.83,25.83 0 0 1 14.57,-23.06 z" />
  </g>
  <path
     style="fill:#009688"
     d="m 289.40121,599.1 a 30.67,30.67 0 0 1 -8.32,-21 31.13,31.13 0 0 1 15.27,-26.61 18.07,18.07 0 0 1 -3.19,-10.24 c 0,-10.28 8.62,-18.61 19.26,-18.61 a 19.18,19.18 0 0 1 18.48,13.39 28.9,28.9 0 0 1 24.57,-13.39 c 15.85,0 28.7,12.41 28.7,27.73 a 26.84,26.84 0 0 1 -1.76,9.57 c 0.58,0 1.16,-0.09 1.76,-0.09 12.72,0 23,10 23,22.26 a 21.76,21.76 0 0 1 -0.12,2.25 27.64,27.64 0 0 1 17.3,25.39 c 0,15.26 -12.81,27.64 -28.61,27.64 a 29.73,29.73 0 0 1 -5,-0.42 c 0.09,0.92 0.14,1.85 0.14,2.79 0,17.13 -14.37,31 -32.1,31 a 32.72,32.72 0 0 1 -18.28,-5.52 24.37,24.37 0 0 1 -15.52,5.52 c -13.24,0 -24,-10.37 -24,-23.17 0,-0.55 0,-1.1 0.09,-1.64 h -0.09 c -14.18,0 -25.68,-11.11 -25.68,-24.81 a 24.72,24.72 0 0 1 14.1,-22.04 z"
     data-name="&lt;Path&gt;"
     id="b9cc99c1-468f-47c5-9d53-f370b6656f3a" />
  <line
     style="fill:#795548"
     y2="739.03003"
     x2="343.81122"
     y1="566.65997"
     x1="343.81122"
     data-name="&lt;Path&gt;"
     id="7a451371-7fbb-4ddd-b5af-3dcf3eef4c8e" />
  <rect
     style="fill:url(#71e42c26-8972-4331-ac1b-fe8028f46264)"
     id="rect133"
     height="172.36"
     width="9.3900003"
     y="566.65997"
     x="338.96121" />
  <rect
     style="fill:#795548"
     id="rect135"
     height="172.36"
     width="5.1900001"
     y="566.65997"
     x="341.22122" />
  <line
     style="fill:#795548"
     y2="586.89001"
     x2="313.56122"
     y1="618.28998"
     x1="344.34122"
     data-name="&lt;Path&gt;"
     id="f8907fab-e671-432b-8785-92f5b3540283" />
  <rect
     style="fill:#795548"
     id="rect138"
     transform="rotate(-44.43)"
     height="43.970001"
     width="5.1900001"
     y="638.6073"
     x="-189.52859" />
  <line
     style="fill:#795548"
     y2="622.88"
     x2="376.25122"
     y1="645.27002"
     x1="344.34122"
     data-name="&lt;Path&gt;"
     id="83bfd14d-9fcf-4efd-aa6d-a51063723d88" />
  <rect
     style="fill:#795548"
     id="rect141"
     transform="rotate(-35.06)"
     height="5.1900001"
     width="38.98"
     y="723.38116"
     x="-88.790131" />
  <polyline
     transform="translate(0.00121283)"
     style="fill:none;stroke:#37474f;stroke-miterlimit:10"
     id="polyline143"
     stroke-miterlimit="10"
     points="89.22 503.76 156.78 573.98 233.22 503.76" />
  <rect
     style="fill:url(#b530f945-63fc-46f4-8c64-420d03be0b8a)"
     id="rect145"
     height="280"
     width="45.330002"
     y="468.20001"
     x="22.561213" />
  <rect
     style="fill:#f5f5f5"
     id="rect147"
     height="264.89001"
     width="38.220001"
     y="473.53"
     x="26.111214" />
  <rect
     style="fill:url(#6434ea8d-22a5-4ded-b4fb-b816fb6aaf11)"
     id="rect149"
     height="48.889999"
     width="272"
     y="479.76001"
     x="11.001213" />
  <rect
     style="fill:#f5f5f5"
     id="rect151"
     transform="rotate(-90)"
     height="264.89001"
     width="38.220001"
     y="14.561223"
     x="-523.31" />
  <circle
     style="fill:url(#ce587cc2-5f44-4d09-a37f-cbd1d4582cbf)"
     id="circle153"
     r="8"
     cy="503.76001"
     cx="45.671211" />
  <circle
     style="fill:url(#44f2908b-b842-425b-90b7-6a504dcafb19)"
     id="circle155"
     r="8"
     cy="503.76001"
     cx="259.89124" />
  <circle
     style="fill:#e6e6e6"
     id="circle157"
     r="6.2199998"
     cy="503.76001"
     cx="45.671211" />
  <circle
     style="fill:#e6e6e6"
     id="circle159"
     r="6.2199998"
     cy="503.76001"
     cx="259.89124" />
  <rect
     style="fill:url(#18c6eef5-8ad4-4423-849c-53e6d88fcc26)"
     id="rect161"
     height="116.44"
     width="171.56"
     y="569.53003"
     x="75.891212" />
  <rect
     style="fill:#c8de72"
     id="rect163"
     height="112"
     width="168.89"
     y="570.87"
     x="77.221214" />
  <rect
     style="fill:#ffffff"
     id="rect165"
     height="10.67"
     width="119.11"
     y="588.64001"
     x="96.781212" />
  <rect
     style="fill:#ffffff"
     id="rect167"
     height="10.67"
     width="84.440002"
     y="609.53003"
     x="118.56121" />
  <rect
     style="fill:#ffffff"
     id="rect169"
     height="10.67"
     width="102.22"
     y="630.41998"
     x="107.89121" />
  <rect
     style="fill:#ffffff"
     id="rect171"
     height="10.67"
     width="119.11"
     y="651.31"
     x="98.111214" />
  <g
     transform="translate(0.00121283)"
     data-name="&lt;Group&gt;"
     id="63650477-b8a1-43d8-a2c1-7cd9fae56092">
    <path
       style="fill:url(#6cad729a-3ab6-44c4-8c11-5c0a64ee20ab)"
       id="path173"
       transform="translate(-157,-60)"
       d="m 892.74,668.47 a 36.12,36.12 0 0 1 7.46,-54 21.36,21.36 0 0 1 -3.42,-11.63 20.6,20.6 0 0 1 40.48,-5.92 30.63,30.63 0 0 1 26.36,-15.21 c 17,0 30.78,14.1 30.78,31.48 a 32.06,32.06 0 0 1 -1.88,10.87 c 0.62,0 1.25,-0.1 1.88,-0.1 13.65,0 24.71,11.31 24.71,25.27 0,0.86 0,1.71 -0.13,2.55 a 31.41,31.41 0 0 1 18.56,28.83 c 0,17.33 -13.74,31.38 -30.68,31.38 a 30.17,30.17 0 0 1 -5.31,-0.48 c 0.09,1 0.15,2.1 0.15,3.17 0,19.45 -15.41,35.21 -34.43,35.21 a 33.74,33.74 0 0 1 -19.61,-6.27 25.27,25.27 0 0 1 -16.66,6.27 c -14.2,0 -25.72,-11.78 -25.72,-26.31 0,-0.63 0,-1.25 0.09,-1.87 h -0.09 c -15.21,0 -27.54,-12.61 -27.54,-28.17 a 28.24,28.24 0 0 1 15,-25.07 z" />
  </g>
  <path
     style="fill:#00897b"
     d="m 739.72121,608.31 a 33.9,33.9 0 0 1 7,-50.7 20,20 0 0 1 -3.21,-10.91 19.34,19.34 0 0 1 38,-5.56 28.75,28.75 0 0 1 24.74,-14.28 c 16,0 28.89,13.23 28.89,29.55 a 30.09,30.09 0 0 1 -1.77,10.2 c 0.59,0 1.17,-0.09 1.77,-0.09 12.81,0 23.19,10.62 23.19,23.72 0,0.81 0,1.61 -0.12,2.39 a 29.48,29.48 0 0 1 17.42,27.06 c 0,16.27 -12.89,29.45 -28.8,29.45 a 28.32,28.32 0 0 1 -5,-0.45 c 0.09,1 0.14,2 0.14,3 0,18.25 -14.47,33.05 -32.32,33.05 a 31.67,31.67 0 0 1 -18.4,-5.89 23.72,23.72 0 0 1 -15.62,5.89 c -13.33,0 -24.14,-11.05 -24.14,-24.69 0,-0.59 0,-1.17 0.09,-1.75 h -0.09 c -14.28,0 -25.85,-11.84 -25.85,-26.44 a 26.51,26.51 0 0 1 14.08,-23.55 z"
     data-name="&lt;Path&gt;"
     id="d9fb3d72-af8e-4f1d-b977-47710d21b422" />
  <rect
     style="fill:url(#b6203ec6-a956-4b17-9931-78587025ff07)"
     id="rect177"
     height="186.71001"
     width="7.5100002"
     y="570.59003"
     x="790.69122" />
  <rect
     style="fill:#795548"
     id="rect179"
     height="184.09"
     width="3.78"
     y="573.21002"
     x="792.2912" />
  <rect
     style="fill:#795548"
     id="rect181"
     transform="rotate(-42.8)"
     height="45.599998"
     width="3.78"
     y="955.96289"
     x="154.19942" />
  <rect
     style="fill:#795548"
     id="rect183"
     transform="rotate(-36.6)"
     height="3.78"
     width="40.02"
     y="999.97406"
     x="246.25087" />
  <g
     transform="translate(0.00121283)"
     data-name="&lt;Group&gt;"
     id="ea5e6e86-8f22-4c0d-a253-147f504d396e">
    <path
       style="fill:url(#b6cb1d8e-c69c-4d33-a5df-3c3a5a49df8c)"
       id="path185"
       transform="translate(-157,-60)"
       d="m 939.86,689.23 a 29.13,29.13 0 0 0 7.9,-19.92 29.57,29.57 0 0 0 -14.5,-25.31 17.16,17.16 0 0 0 3,-9.73 c 0,-9.76 -8.19,-17.68 -18.29,-17.68 a 18.21,18.21 0 0 0 -17.55,12.72 27.45,27.45 0 0 0 -23.34,-12.72 c -15.06,0 -27.26,11.79 -27.26,26.34 a 25.49,25.49 0 0 0 1.67,9.09 c -0.55,0 -1.11,-0.08 -1.67,-0.08 -12.08,0 -21.88,9.46 -21.88,21.14 a 20.67,20.67 0 0 0 0.11,2.13 26.25,26.25 0 0 0 -16.43,24.12 c 0,14.5 12.17,26.25 27.17,26.25 a 28.24,28.24 0 0 0 4.7,-0.4 c -0.08,0.87 -0.13,1.76 -0.13,2.65 0,16.27 13.65,29.46 30.49,29.46 a 31.08,31.08 0 0 0 17.36,-5.25 23.15,23.15 0 0 0 14.79,5.31 c 12.58,0 22.78,-9.85 22.78,-22 0,-0.53 0,-1 -0.08,-1.56 h 0.08 c 13.47,0 24.39,-10.55 24.39,-23.57 a 23.48,23.48 0 0 0 -13.31,-20.99 z" />
  </g>
  <path
     style="fill:#009688"
     d="m 780.40121,629.14 a 27.89,27.89 0 0 0 7.6,-19.07 28.3,28.3 0 0 0 -13.88,-24.19 16.43,16.43 0 0 0 2.9,-9.31 c 0,-9.34 -7.84,-16.92 -17.51,-16.92 a 17.43,17.43 0 0 0 -16.8,12.18 26.28,26.28 0 0 0 -22.34,-12.18 c -14.41,0 -26.09,11.29 -26.09,25.21 a 24.4,24.4 0 0 0 1.6,8.7 c -0.53,0 -1.06,-0.08 -1.6,-0.08 -11.57,0 -20.94,9.06 -20.94,20.23 a 19.78,19.78 0 0 0 0.11,2 25.13,25.13 0 0 0 -15.73,23.08 c 0,13.88 11.64,25.13 26,25.13 a 27,27 0 0 0 4.5,-0.38 c -0.08,0.84 -0.12,1.68 -0.12,2.54 0,15.57 13.07,28.2 29.18,28.2 a 29.75,29.75 0 0 0 16.62,-5 22.15,22.15 0 0 0 14.11,5 c 12,0 21.8,-9.43 21.8,-21.06 0,-0.5 0,-1 -0.08,-1.49 h 0.08 c 12.89,0 23.35,-10.1 23.35,-22.56 a 22.48,22.48 0 0 0 -12.76,-20.03 z"
     data-name="&lt;Path&gt;"
     id="79f8c247-f548-4c1c-8f49-a16aaa215201" />
  <line
     style="fill:#795548"
     y2="756.35999"
     x2="730.93121"
     y1="599.65002"
     x1="730.93121"
     data-name="&lt;Path&gt;"
     id="86901f0c-b7b5-4ba8-942f-e54f281a8bcd" />
  <rect
     style="fill:url(#7de7dbdc-b07f-446b-8432-6deb6240c5ca)"
     id="rect190"
     height="156.71001"
     width="8.54"
     y="599.65002"
     x="726.81122" />
  <rect
     style="fill:#795548"
     id="rect192"
     height="156.71001"
     width="4.7199998"
     y="599.65002"
     x="728.57123" />
  <line
     style="fill:#795548"
     y2="618.03998"
     x2="758.44122"
     y1="646.58002"
     x1="730.46124"
     data-name="&lt;Path&gt;"
     id="63650f42-d3c3-489e-a647-f3904e46b7bd" />
  <rect
     style="fill:#795548"
     id="rect195"
     transform="rotate(-45.57)"
     height="4.7199998"
     width="39.970001"
     y="971.90021"
     x="49.616974" />
  <line
     style="fill:#795548"
     y2="650.76001"
     x2="701.44122"
     y1="671.10999"
     x1="730.46124"
     data-name="&lt;Path&gt;"
     id="25077b7e-584e-4c29-8c8c-a60ca5d6c1ae" />
  <rect
     style="fill:#795548"
     id="rect198"
     transform="rotate(-54.94)"
     height="35.439999"
     width="4.7199998"
     y="947.99622"
     x="-132.11667" />
</svg>
